<svg width="36" height="36" viewBox="0 0 36 36" fill="none" xmlns="http://www.w3.org/2000/svg">
<path d="M4.0605 36H17.2665C17.8875 36 18.3915 35.496 18.3915 34.875C18.3915 34.635 18.3765 24.615 18.375 24.375C18.375 23.754 17.871 23.25 17.25 23.25H13.875V19.5H17.25C17.871 19.5 18.375 18.996 18.375 18.375V14.1495C18.375 10.4835 21.3585 7.5 25.0245 7.5H28.125V11.25H26.25C24.8025 11.25 23.625 12.4275 23.625 13.875V18.375C23.625 18.996 24.129 19.5 24.75 19.5H29.31L28.3725 23.25H24.75C24.129 23.25 23.625 23.754 23.625 24.375V34.875C23.625 35.496 24.129 36 24.75 36H31.9395C34.179 36 36 34.179 36 31.9395V4.0605C36 1.821 34.179 0 31.9395 0H4.0605C1.821 0 0 1.821 0 4.0605V31.941C0 34.179 1.821 36 4.0605 36ZM2.25 4.0605C2.25 3.0615 3.0615 2.25 4.0605 2.25H31.941C32.94 2.25 33.7515 3.0615 33.7515 4.0605V31.941C33.7515 32.94 32.94 33.7515 31.941 33.7515H25.875V25.5H29.25C29.766 25.5 30.216 25.149 30.342 24.648L31.842 18.648C32.019 17.9385 31.4835 17.25 30.75 17.25H25.875V13.875C25.875 13.671 26.046 13.5 26.25 13.5H29.25C29.871 13.5 30.375 12.996 30.375 12.375V6.375C30.375 5.754 29.871 5.25 29.25 5.25H25.0245C20.118 5.25 16.125 9.243 16.125 14.1495V17.25H12.75C12.129 17.25 11.625 17.754 11.625 18.375V24.375C11.625 24.996 12.129 25.5 12.75 25.5H16.125V33.75H4.0605C3.0615 33.75 2.25 32.9385 2.25 31.9395V4.0605Z" fill="white"/>
</svg>
