<svg width="36" height="36" viewBox="0 0 36 36" fill="none" xmlns="http://www.w3.org/2000/svg">
<g clip-path="url(#clip0_92_25)">
<path d="M35.9648 10.5841C35.8804 8.67128 35.5711 7.35623 35.128 6.21673C34.6709 5.00717 33.9676 3.92426 33.0462 3.02403C32.146 2.10979 31.0559 1.39938 29.8604 0.949404C28.7143 0.506294 27.4061 0.196968 25.4933 0.112632C23.5662 0.0211528 22.9544 0 18.0667 0C13.1791 0 12.5673 0.0211528 10.6473 0.105489C8.73451 0.189826 7.41946 0.499426 6.28023 0.942262C5.0704 1.39938 3.98749 2.10264 3.08726 3.02403C2.17302 3.92426 1.46289 5.01432 1.01264 6.20986C0.569526 7.35623 0.260201 8.66414 0.175864 10.577C0.0843852 12.5041 0.0632324 13.1158 0.0632324 18.0035C0.0632324 22.8912 0.0843852 23.503 0.168722 25.4229C0.253058 27.3358 0.562658 28.6508 1.00577 29.7903C1.46289 30.9999 2.17302 32.0828 3.08726 32.983C3.98749 33.8972 5.07754 34.6076 6.27309 35.0576C7.41946 35.5007 8.72736 35.8101 10.6405 35.8944C12.5601 35.979 13.1722 35.9999 18.0599 35.9999C22.9475 35.9999 23.5593 35.979 25.4793 35.8944C27.3921 35.8101 28.7071 35.5007 29.8464 35.0576C32.2658 34.1222 34.1786 32.2094 35.114 29.7903C35.5568 28.6439 35.8664 27.3358 35.9507 25.4229C36.0351 23.503 36.0562 22.8912 36.0562 18.0035C36.0562 13.1158 36.0491 12.5041 35.9648 10.5841ZM32.7229 25.2823C32.6454 27.0404 32.3501 27.9898 32.104 28.6228C31.499 30.1911 30.2543 31.4358 28.686 32.0407C28.0531 32.2869 27.0968 32.5822 25.3455 32.6594C23.4467 32.744 22.8772 32.7649 18.0739 32.7649C13.2705 32.7649 12.6939 32.744 10.802 32.6594C9.04383 32.5822 8.09443 32.2869 7.46149 32.0407C6.68104 31.7523 5.97063 31.2952 5.39401 30.6974C4.79624 30.1136 4.33912 29.4104 4.05067 28.6299C3.80453 27.997 3.50922 27.0404 3.43202 25.2894C3.34741 23.3906 3.32653 22.8209 3.32653 18.0175C3.32653 13.2142 3.34741 12.6376 3.43202 10.7459C3.50922 8.98775 3.80453 8.03834 4.05067 7.40541C4.33912 6.62468 4.79624 5.91455 5.40115 5.33765C5.98464 4.73988 6.6879 4.28276 7.46863 3.99458C8.10157 3.74844 9.05812 3.45313 10.8091 3.37566C12.7079 3.29132 13.2777 3.27017 18.0807 3.27017C22.8912 3.27017 23.4607 3.29132 25.3526 3.37566C27.1108 3.45313 28.0602 3.74844 28.6931 3.99458C29.4736 4.28276 30.184 4.73988 30.7606 5.33765C31.3584 5.92141 31.8155 6.62468 32.104 7.40541C32.3501 8.03834 32.6454 8.99462 32.7229 10.7459C32.8072 12.6447 32.8284 13.2142 32.8284 18.0175C32.8284 22.8209 32.8072 23.3835 32.7229 25.2823Z" fill="white"/>
<path d="M18.0667 8.75562C12.9612 8.75562 8.81885 12.8977 8.81885 18.0035C8.81885 23.1093 12.9612 27.2514 18.0667 27.2514C23.1725 27.2514 27.3146 23.1093 27.3146 18.0035C27.3146 12.8977 23.1725 8.75562 18.0667 8.75562ZM18.0667 24.0024C14.7545 24.0024 12.0679 21.316 12.0679 18.0035C12.0679 14.691 14.7545 12.0046 18.0667 12.0046C21.3792 12.0046 24.0656 14.691 24.0656 18.0035C24.0656 21.316 21.3792 24.0024 18.0667 24.0024Z" fill="white"/>
<path d="M29.8394 8.38998C29.8394 9.58223 28.8727 10.5489 27.6802 10.5489C26.488 10.5489 25.5212 9.58223 25.5212 8.38998C25.5212 7.19745 26.488 6.23101 27.6802 6.23101C28.8727 6.23101 29.8394 7.19745 29.8394 8.38998Z" fill="white"/>
</g>
<defs>
<clipPath id="clip0_92_25">
<rect width="36" height="36" fill="white"/>
</clipPath>
</defs>
</svg>
